<svg width="231" height="231" viewBox="0 0 231 231" fill="none" xmlns="http://www.w3.org/2000/svg">
<path d="M111.25 93.7644V60.4655C102.243 61.2572 93.8777 64.2263 86.6602 68.8512C90.0464 76.1172 92.6724 83.8092 94.3967 91.8313C99.8733 92.9319 105.501 93.578 111.25 93.7644Z" fill="url(#paint0_linear_98_2)"/>
<path d="M87.3397 90.1327C85.8452 84.1062 83.7717 78.3233 81.2726 72.7655C77.3432 76.0145 73.8849 79.7995 70.9961 84.0152C76.2286 86.4794 81.6693 88.568 87.3397 90.1327Z" fill="url(#paint1_linear_98_2)"/>
<path d="M70.9941 145.878C73.883 150.08 77.334 153.865 81.2563 157.107C83.7625 151.565 85.8313 145.78 87.3234 139.766C81.6627 141.328 76.2243 143.417 70.9941 145.878Z" fill="url(#paint2_linear_98_2)"/>
<path d="M90.3068 117.833H61.4863C61.9049 125.889 64.0764 133.478 67.6111 140.239C74.3337 137.019 81.4247 134.459 88.817 132.66C89.6612 127.827 90.1632 122.87 90.3068 117.833Z" fill="url(#paint3_linear_98_2)"/>
<path d="M160.484 146.879C155.55 144.412 150.409 142.285 145.068 140.632C146.537 146.343 148.534 151.838 150.92 157.123C154.527 154.138 157.736 150.697 160.484 146.879Z" fill="url(#paint4_linear_98_2)"/>
<path d="M160.483 83.0104C157.738 79.2014 154.519 75.7442 150.903 72.7537C148.516 78.0434 146.519 83.5533 145.051 89.2714C150.401 87.6134 155.54 85.4843 160.483 83.0104Z" fill="url(#paint5_linear_98_2)"/>
<path d="M141.896 111.328H170.645C170.109 103.105 167.773 95.3842 163.997 88.5511C157.506 91.836 150.657 94.5109 143.504 96.4681C142.623 101.32 142.071 106.282 141.896 111.328Z" fill="url(#paint6_linear_98_2)"/>
<path d="M137.962 138.729C131.861 137.313 125.561 136.43 119.111 136.155V169.566C128.821 169.033 137.849 165.968 145.555 161.025C142.261 153.967 139.693 146.5 137.962 138.729Z" fill="url(#paint7_linear_98_2)"/>
<path d="M200.868 98.394L198.624 91.9676L189.996 89.1924L189.874 88.8575L194.896 81.2996L192.66 74.8804C191.505 71.5787 187.886 69.837 184.581 70.995L167.922 76.8231C175.271 86.8453 179.779 99.0448 180.317 112.292L196.989 106.462C200.287 105.308 202.028 101.693 200.868 98.394Z" fill="url(#paint8_linear_98_2)"/>
<path d="M166.371 74.7442L176.363 60.2263C178.35 57.3432 177.623 53.398 174.748 51.417L169.136 47.5554L160.528 50.4145L160.234 50.2112L159.837 41.1411L154.241 37.2867C151.359 35.2986 147.415 36.0283 145.426 38.9113L135.453 53.3932C147.786 57.3169 158.488 64.8533 166.371 74.7442Z" fill="url(#paint9_linear_98_2)"/>
<path d="M115.887 50.3594C122.423 50.3594 128.728 51.3499 134.67 53.1562V35.5664C134.67 32.0686 131.836 29.2286 128.34 29.2286H121.548L116.069 36.4732H115.713L110.243 29.2286H103.449C99.9453 29.2286 97.1113 32.0686 97.1113 35.5664V53.1538C103.054 51.3499 109.354 50.3594 115.887 50.3594Z" fill="url(#paint10_linear_98_2)"/>
<path d="M64.3225 76.2032C71.9421 66.0711 82.4432 58.2713 94.64 54.015L84.2416 39.7723C82.1754 36.9444 78.2078 36.3319 75.3858 38.3943L69.9021 42.4089L69.7513 51.4814L69.4643 51.6967L60.7712 49.0769L55.2873 53.0867C52.4653 55.1563 51.8459 59.1254 53.9146 61.9535L64.3225 76.2032Z" fill="url(#paint11_linear_98_2)"/>
<path d="M62.7654 78.2871L45.9984 72.9423C42.6599 71.8776 39.1012 73.7223 38.0394 77.055L35.9707 83.5292L41.2082 90.9533L41.0958 91.2905L32.5365 94.3099L30.4726 100.786C29.4108 104.124 31.2498 107.684 34.5884 108.754L51.3674 114.103C51.542 100.806 55.7152 88.4866 62.7654 78.2871Z" fill="url(#paint12_linear_98_2)"/>
<path d="M51.4121 116.699L34.6833 122.291C31.3614 123.398 29.575 126.992 30.6846 130.315L32.8346 136.763L41.437 139.66L41.5446 140.002L36.4148 147.484L38.5695 153.936C39.6792 157.255 43.2713 159.044 46.5883 157.932L63.3052 152.348C56.109 142.23 51.7708 129.973 51.4121 116.699Z" fill="url(#paint13_linear_98_2)"/>
<path d="M64.8684 154.432L54.659 168.82C52.631 171.67 53.3054 175.634 56.1585 177.651L61.6998 181.582L70.3546 178.857L70.6417 179.058L70.9214 188.128L76.4626 192.066C79.3158 194.09 83.2738 193.415 85.2945 190.566L95.4849 176.196C83.2212 172.108 72.6195 164.44 64.8684 154.432Z" fill="url(#paint14_linear_98_2)"/>
<path d="M115.886 179.544C109.665 179.544 103.672 178.613 97.9805 176.974L98.2267 194.58C98.2745 198.081 101.149 200.885 104.646 200.828L111.447 200.739L116.821 193.425H117.17L122.752 200.579L129.539 200.485C133.043 200.435 135.836 197.559 135.781 194.054L135.539 176.469C129.343 178.455 122.742 179.544 115.886 179.544Z" fill="url(#paint15_linear_98_2)"/>
<path d="M168.008 152.967C160.523 163.219 150.117 171.151 137.992 175.579L148.596 189.669C150.703 192.468 154.671 193.032 157.467 190.925L162.902 186.841L162.926 177.752L163.206 177.555L171.938 180.036L177.359 175.948C180.155 173.845 180.712 169.868 178.612 167.074L168.008 152.967Z" fill="url(#paint16_linear_98_2)"/>
<path d="M197.278 120.006L180.454 114.905C180.454 114.919 180.459 114.933 180.459 114.948C180.459 128.245 176.433 140.596 169.551 150.867L186.373 155.97C189.723 156.989 193.253 155.097 194.267 151.75L196.248 145.239L190.907 137.899L191.012 137.557L199.531 134.421L201.495 127.91C202.518 124.566 200.624 121.03 197.278 120.006Z" fill="url(#paint17_linear_98_2)"/>
<circle cx="115.5" cy="115.5" r="113" fill="black" fill-opacity="0.03" stroke="url(#paint18_linear_98_2)" stroke-width="5"/>
<defs>
<linearGradient id="paint0_linear_98_2" x1="87.3548" y1="91.3711" x2="99.6525" y2="72.7407" gradientUnits="userSpaceOnUse">
<stop stop-color="#006838"/>
<stop offset="1" stop-color="#96CF24"/>
</linearGradient>
<linearGradient id="paint1_linear_98_2" x1="71.4578" y1="88.8844" x2="77.1552" y2="77.8851" gradientUnits="userSpaceOnUse">
<stop stop-color="#006838"/>
<stop offset="1" stop-color="#96CF24"/>
</linearGradient>
<linearGradient id="paint2_linear_98_2" x1="71.4554" y1="155.86" x2="77.1421" y2="144.874" gradientUnits="userSpaceOnUse">
<stop stop-color="#006838"/>
<stop offset="1" stop-color="#96CF24"/>
</linearGradient>
<linearGradient id="paint3_linear_98_2" x1="62.3005" y1="138.629" x2="68.2645" y2="122.891" gradientUnits="userSpaceOnUse">
<stop stop-color="#006838"/>
<stop offset="1" stop-color="#96CF24"/>
</linearGradient>
<linearGradient id="paint4_linear_98_2" x1="145.504" y1="155.938" x2="150.935" y2="145.523" gradientUnits="userSpaceOnUse">
<stop stop-color="#006838"/>
<stop offset="1" stop-color="#96CF24"/>
</linearGradient>
<linearGradient id="paint5_linear_98_2" x1="145.487" y1="88.0842" x2="150.928" y2="77.6549" gradientUnits="userSpaceOnUse">
<stop stop-color="#006838"/>
<stop offset="1" stop-color="#96CF24"/>
</linearGradient>
<linearGradient id="paint6_linear_98_2" x1="142.709" y1="109.691" x2="148.857" y2="93.7696" gradientUnits="userSpaceOnUse">
<stop stop-color="#006838"/>
<stop offset="1" stop-color="#96CF24"/>
</linearGradient>
<linearGradient id="paint7_linear_98_2" x1="119.858" y1="167.165" x2="131.842" y2="147.708" gradientUnits="userSpaceOnUse">
<stop stop-color="#006838"/>
<stop offset="1" stop-color="#96CF24"/>
</linearGradient>
<linearGradient id="paint8_linear_98_2" x1="168.863" y1="109.298" x2="183.735" y2="84.9046" gradientUnits="userSpaceOnUse">
<stop stop-color="#006838"/>
<stop offset="1" stop-color="#96CF24"/>
</linearGradient>
<linearGradient id="paint9_linear_98_2" x1="136.64" y1="71.9715" x2="148.192" y2="46.1517" gradientUnits="userSpaceOnUse">
<stop stop-color="#006838"/>
<stop offset="1" stop-color="#96CF24"/>
</linearGradient>
<linearGradient id="paint10_linear_98_2" x1="98.1723" y1="51.4365" x2="103.616" y2="33.9066" gradientUnits="userSpaceOnUse">
<stop stop-color="#006838"/>
<stop offset="1" stop-color="#96CF24"/>
</linearGradient>
<linearGradient id="paint11_linear_98_2" x1="53.8764" y1="73.3981" x2="65.6692" y2="47.3954" gradientUnits="userSpaceOnUse">
<stop stop-color="#006838"/>
<stop offset="1" stop-color="#96CF24"/>
</linearGradient>
<linearGradient id="paint12_linear_98_2" x1="31.0926" y1="111.123" x2="46.0094" y2="87.0674" gradientUnits="userSpaceOnUse">
<stop stop-color="#006838"/>
<stop offset="1" stop-color="#96CF24"/>
</linearGradient>
<linearGradient id="paint13_linear_98_2" x1="31.2862" y1="155.275" x2="46.1825" y2="131.048" gradientUnits="userSpaceOnUse">
<stop stop-color="#006838"/>
<stop offset="1" stop-color="#96CF24"/>
</linearGradient>
<linearGradient id="paint14_linear_98_2" x1="54.6746" y1="190.445" x2="66.3448" y2="164.533" gradientUnits="userSpaceOnUse">
<stop stop-color="#006838"/>
<stop offset="1" stop-color="#96CF24"/>
</linearGradient>
<linearGradient id="paint15_linear_98_2" x1="99.0483" y1="199.078" x2="104.643" y2="181.268" gradientUnits="userSpaceOnUse">
<stop stop-color="#006838"/>
<stop offset="1" stop-color="#96CF24"/>
</linearGradient>
<linearGradient id="paint16_linear_98_2" x1="139.176" y1="189.38" x2="151.081" y2="163.301" gradientUnits="userSpaceOnUse">
<stop stop-color="#006838"/>
<stop offset="1" stop-color="#96CF24"/>
</linearGradient>
<linearGradient id="paint17_linear_98_2" x1="170.461" y1="153.275" x2="185.39" y2="129.403" gradientUnits="userSpaceOnUse">
<stop stop-color="#006838"/>
<stop offset="1" stop-color="#96CF24"/>
</linearGradient>
<linearGradient id="paint18_linear_98_2" x1="6.52537" y1="214.397" x2="79.6088" y2="64.4666" gradientUnits="userSpaceOnUse">
<stop stop-color="#006838"/>
<stop offset="1" stop-color="#96CF24"/>
</linearGradient>
</defs>
</svg>
